<svg width="20" height="20" viewBox="0 0 20 20" fill="none" xmlns="http://www.w3.org/2000/svg">
<path d="M18.125 16.25C18.125 16.4158 18.0592 16.5747 17.9419 16.6919C17.8247 16.8092 17.6658 16.875 17.5 16.875H2.5C2.33424 16.875 2.17527 16.8092 2.05806 16.6919C1.94085 16.5747 1.875 16.4158 1.875 16.25V3.75C1.875 3.58424 1.94085 3.42527 2.05806 3.30806C2.17527 3.19085 2.33424 3.125 2.5 3.125C2.66576 3.125 2.82473 3.19085 2.94194 3.30806C3.05915 3.42527 3.125 3.58424 3.125 3.75V12.2414L7.05781 8.30781C7.11586 8.2497 7.18479 8.2036 7.26066 8.17215C7.33654 8.1407 7.41787 8.12451 7.5 8.12451C7.58213 8.12451 7.66346 8.1407 7.73934 8.17215C7.81521 8.2036 7.88414 8.2497 7.94219 8.30781L10 10.3664L14.1164 6.25C14.1164 6.25 15.3342 5 15.5 5C15.6658 5 15.9497 5.06585 16.0669 5.18306C16.1842 5.30027 16.25 5.43819 16.25 5.625C16.25 5.83203 15 7 15 7L10.4422 11.6922C10.3841 11.7503 10.3152 11.7964 10.2393 11.8279C10.1635 11.8593 10.0821 11.8755 10 11.8755C9.91787 11.8755 9.83654 11.8593 9.76066 11.8279C9.68479 11.7964 9.61586 11.7503 9.55781 11.6922L7.5 9.63359L3.125 14.0086V15.625H17.5C17.6658 15.625 17.8247 15.6908 17.9419 15.8081C18.0592 15.9253 18.125 16.0842 18.125 16.25Z" fill="#1C252C"/>
</svg>
