<svg width="20" height="20" viewBox="0 0 20 20" fill="none" xmlns="http://www.w3.org/2000/svg">
<path d="M16.25 4.58341L15.7333 12.9376C15.6017 15.0717 15.5358 16.1392 15 16.9067C14.7355 17.2861 14.3949 17.6062 14 17.8467C13.2025 18.3334 12.1333 18.3334 9.995 18.3334C7.85333 18.3334 6.7825 18.3334 5.98333 17.8459C5.58824 17.6049 5.24768 17.2842 4.98333 16.9042C4.44833 16.1359 4.38333 15.0667 4.255 12.9292L3.75 4.58341M2.5 4.58341H17.5M13.38 4.58341L12.8108 3.41008C12.4333 2.63008 12.2442 2.24091 11.9183 1.99758C11.846 1.94368 11.7693 1.89574 11.6892 1.85425C11.3283 1.66675 10.895 1.66675 10.0292 1.66675C9.14083 1.66675 8.69667 1.66675 8.32917 1.86175C8.24793 1.90526 8.17044 1.95543 8.0975 2.01175C7.76833 2.26425 7.58417 2.66841 7.21583 3.47591L6.71083 4.58341" stroke="#1C252C" stroke-width="1.5" stroke-linecap="round" stroke-linejoin="round"/>
</svg>
