<svg width="20" height="20" viewBox="0 0 20 20" fill="none" xmlns="http://www.w3.org/2000/svg">
<path d="M14.6875 3.90621C14.2996 3.90577 13.9198 4.01726 13.5937 4.2273V3.43746C13.5938 2.93618 13.4085 2.45259 13.0735 2.07971C12.7384 1.70683 12.2774 1.471 11.779 1.41758C11.2805 1.36416 10.78 1.49692 10.3735 1.79034C9.9671 2.08375 9.68352 2.51709 9.57734 3.00699C9.27197 2.79997 8.91599 2.68002 8.54761 2.66002C8.17922 2.64002 7.81235 2.72073 7.48637 2.89347C7.16038 3.06622 6.8876 3.32449 6.69731 3.64055C6.50702 3.95661 6.40639 4.31853 6.40625 4.68746V10.2343L5.81796 9.28902C5.54995 8.82168 5.10726 8.47995 4.58729 8.33901C4.06732 8.19806 3.51265 8.26945 3.04531 8.53746C2.57797 8.80547 2.23624 9.24816 2.09529 9.76814C1.95435 10.2881 2.02573 10.8428 2.29375 11.3101C4.74687 16.4843 6.13359 18.5937 10 18.5937C11.7813 18.5916 13.489 17.8831 14.7486 16.6236C16.0081 15.364 16.7167 13.6563 16.7187 11.875V5.93746C16.7187 5.67071 16.6662 5.40658 16.5641 5.16014C16.462 4.91369 16.3124 4.68977 16.1238 4.50115C15.9352 4.31253 15.7113 4.16291 15.4648 4.06083C15.2184 3.95875 14.9542 3.90621 14.6875 3.90621ZM15.7812 11.875C15.7794 13.4077 15.1697 14.8771 14.0859 15.9609C13.0021 17.0447 11.5327 17.6544 10 17.6562C8.35937 17.6562 7.3039 17.2617 6.34765 16.2929C5.29765 15.2343 4.33906 13.4375 3.13281 10.8929L3.11484 10.8593C2.9698 10.6081 2.9305 10.3095 3.00559 10.0293C3.08068 9.74914 3.264 9.51024 3.51523 9.3652C3.76646 9.22016 4.06502 9.18086 4.34522 9.25594C4.62543 9.33103 4.86433 9.51436 5.00937 9.76559L5.01718 9.77887L6.47656 12.1226C6.53029 12.2093 6.61083 12.2761 6.70597 12.3129C6.8011 12.3497 6.90564 12.3544 7.00372 12.3264C7.10179 12.2984 7.18806 12.2392 7.24942 12.1577C7.31079 12.0762 7.3439 11.977 7.34375 11.875V4.68746C7.34375 4.39738 7.45898 4.11918 7.6641 3.91406C7.86921 3.70895 8.14741 3.59371 8.4375 3.59371C8.72758 3.59371 9.00578 3.70895 9.21089 3.91406C9.41601 4.11918 9.53125 4.39738 9.53125 4.68746V9.37496C9.53125 9.49928 9.58063 9.61851 9.66854 9.70642C9.75645 9.79433 9.87568 9.84371 10 9.84371C10.1243 9.84371 10.2435 9.79433 10.3315 9.70642C10.4194 9.61851 10.4687 9.49928 10.4687 9.37496V3.43746C10.4687 3.14738 10.584 2.86918 10.7891 2.66406C10.9942 2.45894 11.2724 2.34371 11.5625 2.34371C11.8526 2.34371 12.1308 2.45894 12.3359 2.66406C12.541 2.86918 12.6562 3.14738 12.6562 3.43746V9.37496C12.6562 9.49928 12.7056 9.61851 12.7935 9.70642C12.8814 9.79433 13.0007 9.84371 13.125 9.84371C13.2493 9.84371 13.3685 9.79433 13.4565 9.70642C13.5444 9.61851 13.5937 9.49928 13.5937 9.37496V5.93746C13.5937 5.64738 13.709 5.36918 13.9141 5.16406C14.1192 4.95894 14.3974 4.84371 14.6875 4.84371C14.9776 4.84371 15.2558 4.95894 15.4609 5.16406C15.666 5.36918 15.7812 5.64738 15.7812 5.93746V11.875Z" fill="#1C252C"/>
</svg>
