<svg width="20" height="20" viewBox="0 0 20 20" fill="none" xmlns="http://www.w3.org/2000/svg">
<path fill-rule="evenodd" clip-rule="evenodd" d="M16.3238 6.71676C16.7792 6.24525 17.0312 5.61375 17.0255 4.95826C17.0198 4.30277 16.7569 3.67573 16.2933 3.21221C15.8298 2.74869 15.2028 2.48577 14.5473 2.48007C13.8918 2.47438 13.2603 2.72636 12.7888 3.18176L3.81379 12.1568L3.70179 12.3268C3.53679 12.7438 3.33579 13.1538 2.83679 14.1238C1.58179 16.5598 1.38179 17.0588 1.91379 17.5918C2.44679 18.1248 2.94579 17.9238 5.38179 16.6688C6.35179 16.1688 6.76179 15.9688 7.17979 15.8038L7.34979 15.6918L16.3238 6.71676ZM15.6168 3.88876C15.898 4.17005 16.056 4.55152 16.056 4.94927C16.056 5.34701 15.898 5.72847 15.6168 6.00976L6.71379 14.9128C6.28779 15.0868 5.85579 15.2998 4.92379 15.7798C3.97379 16.2698 3.57279 16.4668 3.15779 16.6328C3.01599 16.6916 2.87072 16.7417 2.72279 16.7828C2.75379 16.6648 2.80279 16.5188 2.87279 16.3478C3.03879 15.9338 3.23679 15.5318 3.72579 14.5818C4.20579 13.6498 4.41879 13.2178 4.59279 12.7918L13.4958 3.88876C13.7771 3.60755 14.1585 3.44958 14.5563 3.44958C14.954 3.44958 15.3355 3.60755 15.6168 3.88876Z" fill="#1C252C"/>
<path d="M9.85081 3.82392C9.75973 3.72962 9.70933 3.60332 9.71047 3.47222C9.71161 3.34112 9.76419 3.21571 9.8569 3.12301C9.9496 3.03031 10.075 2.97772 10.2061 2.97658C10.3372 2.97544 10.4635 3.02584 10.5578 3.11692L16.2148 8.77392C16.2626 8.82004 16.3007 8.87521 16.3269 8.93622C16.3531 8.99722 16.3669 9.06283 16.3674 9.12922C16.368 9.19561 16.3554 9.26145 16.3302 9.3229C16.3051 9.38434 16.2679 9.44017 16.221 9.48712C16.1741 9.53406 16.1182 9.57119 16.0568 9.59633C15.9953 9.62147 15.9295 9.63412 15.8631 9.63354C15.7967 9.63297 15.7311 9.61917 15.6701 9.59297C15.6091 9.56676 15.5539 9.52867 15.5078 9.48092L9.85081 3.82392Z" fill="#1C252C"/>
</svg>
