<svg width="15" height="16" viewBox="0 0 15 16" fill="none" xmlns="http://www.w3.org/2000/svg">
<path d="M7.5 11C7.22 11 7 10.78 7 10.5V1.5C7 1.22 7.22 1 7.5 1C7.78 1 8 1.22 8 1.5V10.5C8 10.78 7.78 11 7.5 11ZM13.5 15H1.5C1.22 15 1 14.78 1 14.5V12.5C1 12.22 1.22 12 1.5 12C1.78 12 2 12.22 2 12.5V14H13V12.5C13 12.22 13.22 12 13.5 12C13.78 12 14 12.22 14 12.5V14.5C14 14.78 13.78 15 13.5 15Z" fill="white"/>
<path d="M7.5 12.0002C7.43442 12.001 7.36941 11.9881 7.30913 11.9623C7.24885 11.9364 7.19465 11.8983 7.15 11.8502L3.65 8.35023C3.45 8.15023 3.45 7.84023 3.65 7.64023C3.85 7.44023 4.16 7.44023 4.36 7.64023L7.51 10.7902L10.66 7.64023C10.86 7.44023 11.17 7.44023 11.37 7.64023C11.57 7.84023 11.57 8.15023 11.37 8.35023L7.87 11.8502C7.77 11.9502 7.64 12.0002 7.52 12.0002H7.5Z" fill="white"/>
</svg>
