<svg width="20" height="20" viewBox="0 0 20 20" fill="none" xmlns="http://www.w3.org/2000/svg">
<path d="M2 4.28571C2 3.67951 2.24082 3.09812 2.66947 2.66947C3.09812 2.24082 3.67951 2 4.28571 2H13.8617C14.4679 2.00013 15.0492 2.24103 15.4777 2.66971L17.3303 4.52229C17.759 4.95084 17.9999 5.53213 18 6.13829V15.7143C18 16.3205 17.7592 16.9019 17.3305 17.3305C16.9019 17.7592 16.3205 18 15.7143 18H4.28571C3.67951 18 3.09812 17.7592 2.66947 17.3305C2.24082 16.9019 2 16.3205 2 15.7143V4.28571ZM4.28571 3.14286C3.98261 3.14286 3.69192 3.26327 3.47759 3.47759C3.26327 3.69192 3.14286 3.98261 3.14286 4.28571V15.7143C3.14286 16.0174 3.26327 16.3081 3.47759 16.5224C3.69192 16.7367 3.98261 16.8571 4.28571 16.8571V11.7143C4.28571 11.2596 4.46633 10.8236 4.78782 10.5021C5.10931 10.1806 5.54534 10 6 10H14C14.4547 10 14.8907 10.1806 15.2122 10.5021C15.5337 10.8236 15.7143 11.2596 15.7143 11.7143V16.8571C16.0174 16.8571 16.3081 16.7367 16.5224 16.5224C16.7367 16.3081 16.8571 16.0174 16.8571 15.7143V6.13829C16.8571 5.83521 16.7366 5.54456 16.5223 5.33029L14.6697 3.47771C14.4554 3.26337 14.1648 3.14292 13.8617 3.14286H13.4286V6C13.4286 6.45466 13.248 6.89069 12.9265 7.21218C12.605 7.53367 12.1689 7.71429 11.7143 7.71429H7.14286C6.6882 7.71429 6.25216 7.53367 5.93067 7.21218C5.60918 6.89069 5.42857 6.45466 5.42857 6V3.14286H4.28571ZM6.57143 3.14286V6C6.57143 6.15155 6.63163 6.2969 6.7388 6.40406C6.84596 6.51122 6.99131 6.57143 7.14286 6.57143H11.7143C11.8658 6.57143 12.0112 6.51122 12.1183 6.40406C12.2255 6.2969 12.2857 6.15155 12.2857 6V3.14286H6.57143ZM14.5714 16.8571V11.7143C14.5714 11.5627 14.5112 11.4174 14.4041 11.3102C14.2969 11.2031 14.1516 11.1429 14 11.1429H6C5.84845 11.1429 5.7031 11.2031 5.59594 11.3102C5.48878 11.4174 5.42857 11.5627 5.42857 11.7143V16.8571H14.5714Z" fill="white"/>
</svg>
